<svg width="35" height="28" viewBox="0 0 35 28" fill="none" xmlns="http://www.w3.org/2000/svg">
<path d="M34.375 11.8066C34.375 11.0449 33.7305 10.4004 32.9688 10.4004H28.9844L22.7148 1.8457C22.1289 0.966797 20.957 0.791016 20.1367 1.43555C19.2578 2.02148 19.082 3.19336 19.7266 4.01367L24.3555 10.4004H10.5859L15.2148 4.01367C15.8594 3.19336 15.6836 2.02148 14.8047 1.43555C13.9844 0.791016 12.8125 0.966797 12.2266 1.8457L5.95703 10.4004H2.03125C1.21094 10.4004 0.625 11.0449 0.625 11.8066V12.7441C0.625 13.5645 1.21094 14.1504 2.03125 14.1504H2.5L4.02344 24.873C4.19922 26.2793 5.37109 27.2754 6.77734 27.2754H28.1641C29.5703 27.2754 30.7422 26.2793 30.918 24.873L32.5 14.1504H32.9688C33.7305 14.1504 34.375 13.5645 34.375 12.7441V11.8066ZM18.9062 22.1191C18.9062 22.9395 18.2617 23.5254 17.5 23.5254C16.6797 23.5254 16.0938 22.9395 16.0938 22.1191V15.5566C16.0938 14.7949 16.6797 14.1504 17.5 14.1504C18.2617 14.1504 18.9062 14.7949 18.9062 15.5566V22.1191ZM25.4688 22.1191C25.4688 22.9395 24.8242 23.5254 24.0625 23.5254C23.2422 23.5254 22.6562 22.9395 22.6562 22.1191V15.5566C22.6562 14.7949 23.2422 14.1504 24.0625 14.1504C24.8242 14.1504 25.4688 14.7949 25.4688 15.5566V22.1191ZM12.3438 22.1191C12.3438 22.9395 11.6992 23.5254 10.9375 23.5254C10.1172 23.5254 9.53125 22.9395 9.53125 22.1191V15.5566C9.53125 14.7949 10.1172 14.1504 10.9375 14.1504C11.6992 14.1504 12.3438 14.7949 12.3438 15.5566V22.1191Z" fill="white"/>
</svg>
