<svg width="17" height="12" viewBox="0 0 17 12" fill="none" xmlns="http://www.w3.org/2000/svg">
<path d="M8.4375 2.49414C8.11523 2.52344 7.79297 2.55273 7.5 2.64062C7.64648 2.875 7.70508 3.16797 7.73438 3.43164C7.73438 4.33984 6.97266 5.07227 6.09375 5.07227C5.80078 5.07227 5.50781 5.01367 5.30273 4.86719C5.21484 5.16016 5.15625 5.45312 5.15625 5.77539C5.15625 7.5918 6.62109 9.05664 8.4375 9.05664C10.2539 9.05664 11.7188 7.5918 11.7188 5.77539C11.7188 3.98828 10.2539 2.52344 8.4375 2.52344V2.49414ZM16.7578 5.36523C15.1758 2.25977 12.0117 0.150391 8.4375 0.150391C4.83398 0.150391 1.66992 2.25977 0.0878906 5.36523C0.0292969 5.48242 0 5.62891 0 5.77539C0 5.95117 0.0292969 6.09766 0.0878906 6.21484C1.66992 9.32031 4.83398 11.4004 8.4375 11.4004C12.0117 11.4004 15.1758 9.32031 16.7578 6.21484C16.8164 6.09766 16.8457 5.95117 16.8457 5.80469C16.8457 5.62891 16.8164 5.48242 16.7578 5.36523ZM8.4375 9.99414C5.53711 9.99414 2.87109 8.38281 1.46484 5.77539C2.87109 3.16797 5.53711 1.55664 8.4375 1.55664C11.3086 1.55664 13.9746 3.16797 15.3809 5.77539C13.9746 8.38281 11.3086 9.99414 8.4375 9.99414Z" fill="#B5B5B5"/>
</svg>
